
<svg xmlns="http://www.w3.org/2000/svg" version="1.1" xmlns:xlink="http://www.w3.org/1999/xlink" preserveAspectRatio="none" x="0px" y="0px" width="400px" height="400px" viewBox="0 0 400 400">
<defs>
<g id="chick_shadow_0_Layer0_0_FILL">
<path fill="#000000" fill-opacity="0.2980392156862745" stroke="none" d="
M 126.4 14.4
Q 126.4 8.45 107.9 4.2 89.4 0 63.2 0 37 0 18.5 4.2 0 8.45 0 14.4 0 20.35 18.5 24.55 37 28.8 63.2 28.8 89.4 28.8 107.9 24.55 126.4 20.35 126.4 14.4 Z"/>
</g>

<g id="Egg2_0_Layer0_0_MEMBER_0_FILL">
<path fill="#FFFFFF" stroke="none" d="
M 231.5 25.95
Q 200.4 0 168.1 0 135.75 0 103.5 25.95 74.65 49.2 50 89.6 27.15 127 13.5 169.45 0 211.45 0 244.15 0 276.05 12.9 305.2 25.4 333.3 48.15 355.05 70.9 376.75 100.45 388.65 131 400.95 164.45 400.95 197.9 400.95 228.45 388.65 257.95 376.75 280.7 355.05 303.45 333.3 315.95 305.2 328.85 276.05 328.85 244.15 328.85 211.2 316.5 169.45 303.85 126.75 282.55 89.6 259.3 49.15 231.5 25.95 Z"/>
</g>

<g id="Egg2_0_Layer0_0_MEMBER_1_FILL">
<path fill="#D8D8D8" stroke="none" d="
M 236.45 58.8
Q 221.35 41.7 205.65 31.95 229.5 68.75 244.1 114.2 258.2 158.2 258.2 192.9 258.2 223.3 245.9 251.05 234 277.85 212.35 298.5 190.65 319.2 162.55 330.5 133.45 342.25 101.6 342.25 79.1 342.25 57.85 336.35 78.05 357.3 105.25 368.95 133.35 380.95 164.45 380.95 193.75 380.95 220.6 370.2 246.5 359.8 266.5 340.85 286.5 321.85 297.5 297.35 308.85 271.9 308.85 244.15 308.85 213.4 296.8 173.55 284.8 133.7 265.2 99.55 251.65 76 236.45 58.8 Z"/>
</g>

<g id="Egg2_0_Layer0_0_MEMBER_2_FILL">
<path fill="#D8D8D8" stroke="none" d="
M 181.65 172.75
L 224.45 192.2 260.95 162.85 218.15 172.4 174.5 153.3 118.25 172.4 181.65 172.75 Z"/>
</g>

<g id="Egg2_0_Layer0_0_MEMBER_3_FILL">
<path fill="#D8D8D8" stroke="none" d="
M 102.25 27
L 93.65 34.55 102.25 63.65 124.55 76.5 130.1 100.25 135.65 71.75 112.7 54.3 102.25 27 Z"/>
</g>

<g id="Egg2_0_Layer0_0_MEMBER_4_FILL">
<path fill="#D8D8D8" stroke="none" d="
M 1.7 266.65
L 35.8 281.85 57.85 254.25 84.15 245.35 49.25 244.15 34.2 264.4 0 244.15 1.7 266.65 Z"/>
</g>

<g id="Egg2_0_Layer0_0_MEMBER_5_FILL">
<path fill="#D8D8D8" stroke="none" d="
M 218.3 292.5
L 195.95 277.05 149.95 281.85 189.6 292.5 211 307.2 218.3 292.5 Z"/>
</g>

<g id="Egg2_0_Layer0_0_MEMBER_6_FILL">
<path fill="#D8D8D8" stroke="none" d="
M 250.4 354
L 260.95 371.1 273.35 361.6 260.95 342.1 250.4 354 Z"/>
</g>

<g id="Egg2_0_Layer0_0_MEMBER_7_FILL">
<path fill="#FFFFFF" stroke="none" d="
M 206.3 303.95
L 206.3 331 189.6 332.55 207.8 342.1 250.4 354 260.95 342.1 218.3 332.55 218.3 292.5 206.3 303.95 Z"/>
</g>

<g id="Egg2_0_Layer0_0_MEMBER_8_FILL">
<path fill="#FFFFFF" stroke="none" d="
M 273.35 244.15
L 250.4 235.05 240.3 252.5 273.35 244.15 Z"/>
</g>
</defs>

<g transform="matrix( 0.7763671875, 0, 0, 1, 150.95,285.55) ">
<g transform="matrix( 1, 0, 0, 1, 0,0) ">
<use xlink:href="#chick_shadow_0_Layer0_0_FILL"/>
</g>
</g>

<g transform="matrix( 1, 0, 0, 1, 144.1,159.65) ">
<g transform="matrix( 0.339874267578125, 0, 0, 0.349884033203125, 0,0) ">
<use xlink:href="#Egg2_0_Layer0_0_MEMBER_0_FILL"/>
</g>

<g transform="matrix( 0.339874267578125, 0, 0, 0.349884033203125, 0,0) ">
<use xlink:href="#Egg2_0_Layer0_0_MEMBER_1_FILL"/>
</g>

<g transform="matrix( 0.339874267578125, 0, 0, 0.349884033203125, 0,0) ">
<use xlink:href="#Egg2_0_Layer0_0_MEMBER_2_FILL"/>
</g>

<g transform="matrix( 0.339874267578125, 0, 0, 0.349884033203125, 0,0) ">
<use xlink:href="#Egg2_0_Layer0_0_MEMBER_3_FILL"/>
</g>

<g transform="matrix( 0.339874267578125, 0, 0, 0.349884033203125, 0,0) ">
<use xlink:href="#Egg2_0_Layer0_0_MEMBER_4_FILL"/>
</g>

<g transform="matrix( 0.339874267578125, 0, 0, 0.349884033203125, 0,0) ">
<use xlink:href="#Egg2_0_Layer0_0_MEMBER_5_FILL"/>
</g>

<g transform="matrix( 0.339874267578125, 0, 0, 0.349884033203125, 0,0) ">
<use xlink:href="#Egg2_0_Layer0_0_MEMBER_6_FILL"/>
</g>

<g transform="matrix( 0.339874267578125, 0, 0, 0.349884033203125, 0,0) ">
<use xlink:href="#Egg2_0_Layer0_0_MEMBER_7_FILL"/>
</g>

<g transform="matrix( 0.339874267578125, 0, 0, 0.349884033203125, 0,0) ">
<use xlink:href="#Egg2_0_Layer0_0_MEMBER_8_FILL"/>
</g>
</g>
</svg>
