
<svg xmlns="http://www.w3.org/2000/svg" version="1.1" xmlns:xlink="http://www.w3.org/1999/xlink" preserveAspectRatio="none" x="0px" y="0px" width="400px" height="400px" viewBox="0 0 400 400">
<defs>
<g id="chick_shadow_0_Layer0_0_FILL">
<path fill="#000000" fill-opacity="0.2980392156862745" stroke="none" d="
M 126.4 14.4
Q 126.4 8.45 107.9 4.2 89.4 0 63.2 0 37 0 18.5 4.2 0 8.45 0 14.4 0 20.35 18.5 24.55 37 28.8 63.2 28.8 89.4 28.8 107.9 24.55 126.4 20.35 126.4 14.4 Z"/>
</g>

<g id="Egg3_0_Layer0_0_MEMBER_0_FILL">
<path fill="#FFFFFF" stroke="none" d="
M 231.5 25.95
Q 200.4 0 168.1 0 135.75 0 103.5 25.95 74.65 49.2 50 89.6 27.15 127 13.5 169.45 0 211.45 0 244.15 0 276.05 12.9 305.2 25.4 333.3 48.15 355.05 70.9 376.75 100.4 388.65 130.95 400.95 164.4 400.95 197.85 400.95 228.4 388.65 257.95 376.75 280.7 355.05 303.45 333.35 315.95 305.2 328.85 276.05 328.85 244.15 328.85 211.2 316.5 169.45 303.85 126.75 282.55 89.6 259.3 49.15 231.5 25.95 Z"/>
</g>

<g id="Egg3_0_Layer0_0_MEMBER_1_FILL">
<path fill="#D8D8D8" stroke="none" d="
M 236.45 58.8
Q 221.35 41.7 205.6 31.95 229.5 68.7 244.1 114.2 258.2 158.15 258.2 192.9 258.2 223.3 245.9 251.05 234 277.85 212.3 298.5 190.65 319.2 162.55 330.5 133.45 342.25 101.6 342.25 79.1 342.25 57.85 336.35 78.05 357.3 105.2 368.95 133.35 380.95 164.4 380.95 193.75 380.95 220.55 370.2 246.5 359.8 266.5 340.85 286.5 321.9 297.5 297.35 308.85 271.9 308.85 244.15 308.85 213.4 296.8 173.55 284.8 133.7 265.2 99.55 251.65 76 236.45 58.8 Z"/>
</g>

<g id="Egg3_0_Layer0_0_MEMBER_2_FILL">
<path fill="#D8D8D8" stroke="none" d="
M 181.65 172.75
L 224.45 192.2 260.95 162.85 218.1 172.4 174.5 153.3 149.95 161.6 135.65 155.8 101 169.05 135.65 164 144.55 172.55 181.65 172.75 Z"/>
</g>

<g id="Egg3_0_Layer0_0_MEMBER_3_FILL">
<path fill="#D8D8D8" stroke="none" d="
M 102.25 27
L 93.65 34.55 102.25 63.65 124.55 76.5 130.1 100.25 135.65 71.75 112.65 54.3 102.25 27 Z"/>
</g>

<g id="Egg3_0_Layer0_0_MEMBER_4_FILL">
<path fill="#D8D8D8" stroke="none" d="
M 70.75 235.05
L 49.25 244.15 34.2 264.4 0 244.15 1.7 266.65 35.75 281.85 57.85 254.25 84.15 245.35 81.95 196.8 70.75 235.05 Z"/>
</g>

<g id="Egg3_0_Layer0_0_MEMBER_5_FILL">
<path fill="#D8D8D8" stroke="none" d="
M 218.3 292.5
L 195.9 277.05 149.95 281.85 189.6 292.5 211 307.2 218.3 292.5 Z"/>
</g>

<g id="Egg3_0_Layer0_0_MEMBER_6_FILL">
<path fill="#D8D8D8" stroke="none" d="
M 250.4 354
L 260.95 371.1 273.35 361.6 260.95 342.1 250.4 354 Z"/>
</g>

<g id="Egg3_0_Layer0_0_MEMBER_7_FILL">
<path fill="#FFFFFF" stroke="none" d="
M 206.3 303.95
L 206.3 331 189.6 332.55 207.8 342.1 250.4 354 260.95 342.1 218.3 332.55 218.3 292.5 206.3 303.95 Z"/>
</g>

<g id="Egg3_0_Layer0_0_MEMBER_8_FILL">
<path fill="#FFFFFF" stroke="none" d="
M 273.35 244.15
L 250.4 235.05 240.3 252.5 273.35 244.15 Z"/>
</g>

<g id="Egg3_0_Layer0_0_MEMBER_9_FILL">
<path fill="#D8D8D8" stroke="none" d="
M 78.95 129.95
L 43.7 100.25 38.95 109 71.35 140.05 93.65 155.8 82.75 136.9 121.8 129.95 78.95 129.95 Z"/>
</g>

<g id="Egg3_0_Layer0_0_MEMBER_10_FILL">
<path fill="#D8D8D8" stroke="none" d="
M 171.65 94
L 204.45 80.15 176.7 83.3 154 63.65 125 63.65 135.2 74.2 149.95 73.2 171.65 94 Z"/>
</g>

<g id="Egg3_0_Layer0_0_MEMBER_11_FILL">
<path fill="#D8D8D8" stroke="none" d="
M 139.55 203.55
L 114.65 231.5 149.95 206.45 164.4 172.65 152.7 172.6 139.55 203.55 Z"/>
</g>

<g id="Egg3_0_Layer0_0_MEMBER_12_FILL">
<path fill="#D8D8D8" stroke="none" d="
M 77.75 144.6
L 71.35 140.05 38.95 146.35 23.05 143.2 19.1 153.3 38.95 155.8 77.75 144.6 Z"/>
</g>

<g id="Egg3_0_Layer0_0_MEMBER_13_FILL">
<path fill="#D8D8D8" stroke="none" d="
M 101 270
L 128.15 263 101 263 72 277.05 42.05 270.6 35.75 281.85 72 287.9 85.1 307.2 121.8 312.85 88.4 299 77.75 281.85 101 270 Z"/>
</g>

<g id="Egg3_0_Layer0_0_MEMBER_14_FILL">
<path fill="#D8D8D8" stroke="none" d="
M 156.5 239.05
L 157.15 223.95 145.15 247.25 171.65 258 177.95 281.85 189.6 281.85 180.95 247.9 156.5 239.05 Z"/>
</g>

<g id="Egg3_0_Layer0_0_MEMBER_15_FILL">
<path fill="#D8D8D8" stroke="none" d="
M 154.8 281.85
L 145.15 300.25 164.4 285.75 154.8 281.85 Z"/>
</g>

<g id="Egg3_0_Layer0_0_MEMBER_16_FILL">
<path fill="#D8D8D8" stroke="none" d="
M 250.4 136.4
L 245.05 117.35 213.25 117.35 250.4 136.4 Z"/>
</g>

<g id="Egg3_0_Layer0_0_MEMBER_17_FILL">
<path fill="#D8D8D8" stroke="none" d="
M 282.15 89
L 269.35 68.65 273.35 89.6 265.2 99.55 273.35 114.75 278.85 100.25 282.15 89 Z"/>
</g>

<g id="Egg3_0_Layer0_0_MEMBER_18_FILL">
<path fill="#D8D8D8" stroke="none" d="
M 102.7 389.5
L 125 374.7 109 370.45 80.4 378.95 102.7 389.5 Z"/>
</g>

<g id="Egg3_0_Layer0_0_MEMBER_19_FILL">
<path fill="#D8D8D8" stroke="none" d="
M 149.95 2.1
L 158.4 27 164.4 0 149.95 2.1 Z"/>
</g>

<g id="Egg3_0_Layer0_0_MEMBER_20_FILL">
<path fill="#FFFFFF" stroke="none" d="
M 245.05 117.35
L 250.4 136.4 265.2 155.8 290.95 155.8 287.3 146.1 265.2 146.1 245.05 117.35 Z"/>
</g>

<g id="Egg3_0_Layer0_0_MEMBER_21_FILL">
<path fill="#FFFFFF" stroke="none" d="
M 273.35 244.15
L 250.4 235.05 240.3 252.5 268 252.9 273.65 291.05 289.95 311.75 297.8 307.2 282.15 287.9 282.15 263 306.55 268.55 287.05 257.35 273.35 244.15 Z"/>
</g>

<g id="Egg3_0_Layer0_0_MEMBER_22_FILL">
<path fill="#FFFFFF" stroke="none" d="
M 149.95 335
L 125 335 164.7 356.6 149.95 335 Z"/>
</g>
</defs>

<g transform="matrix( 0.7763671875, 0, 0, 1, 150.95,285.55) ">
<g transform="matrix( 1, 0, 0, 1, 0,0) ">
<use xlink:href="#chick_shadow_0_Layer0_0_FILL"/>
</g>
</g>

<g transform="matrix( 1, 0, 0, 1, 144.1,159.65) ">
<g transform="matrix( 0.339874267578125, 0, 0, 0.349884033203125, 0,0) ">
<use xlink:href="#Egg3_0_Layer0_0_MEMBER_0_FILL"/>
</g>

<g transform="matrix( 0.339874267578125, 0, 0, 0.349884033203125, 0,0) ">
<use xlink:href="#Egg3_0_Layer0_0_MEMBER_1_FILL"/>
</g>

<g transform="matrix( 0.339874267578125, 0, 0, 0.349884033203125, 0,0) ">
<use xlink:href="#Egg3_0_Layer0_0_MEMBER_2_FILL"/>
</g>

<g transform="matrix( 0.339874267578125, 0, 0, 0.349884033203125, 0,0) ">
<use xlink:href="#Egg3_0_Layer0_0_MEMBER_3_FILL"/>
</g>

<g transform="matrix( 0.339874267578125, 0, 0, 0.349884033203125, 0,0) ">
<use xlink:href="#Egg3_0_Layer0_0_MEMBER_4_FILL"/>
</g>

<g transform="matrix( 0.339874267578125, 0, 0, 0.349884033203125, 0,0) ">
<use xlink:href="#Egg3_0_Layer0_0_MEMBER_5_FILL"/>
</g>

<g transform="matrix( 0.339874267578125, 0, 0, 0.349884033203125, 0,0) ">
<use xlink:href="#Egg3_0_Layer0_0_MEMBER_6_FILL"/>
</g>

<g transform="matrix( 0.339874267578125, 0, 0, 0.349884033203125, 0,0) ">
<use xlink:href="#Egg3_0_Layer0_0_MEMBER_7_FILL"/>
</g>

<g transform="matrix( 0.339874267578125, 0, 0, 0.349884033203125, 0,0) ">
<use xlink:href="#Egg3_0_Layer0_0_MEMBER_8_FILL"/>
</g>

<g transform="matrix( 0.339874267578125, 0, 0, 0.349884033203125, 0,0) ">
<use xlink:href="#Egg3_0_Layer0_0_MEMBER_9_FILL"/>
</g>

<g transform="matrix( 0.339874267578125, 0, 0, 0.349884033203125, 0,0) ">
<use xlink:href="#Egg3_0_Layer0_0_MEMBER_10_FILL"/>
</g>

<g transform="matrix( 0.339874267578125, 0, 0, 0.349884033203125, 0,0) ">
<use xlink:href="#Egg3_0_Layer0_0_MEMBER_11_FILL"/>
</g>

<g transform="matrix( 0.339874267578125, 0, 0, 0.349884033203125, 0,0) ">
<use xlink:href="#Egg3_0_Layer0_0_MEMBER_12_FILL"/>
</g>

<g transform="matrix( 0.339874267578125, 0, 0, 0.349884033203125, 0,0) ">
<use xlink:href="#Egg3_0_Layer0_0_MEMBER_13_FILL"/>
</g>

<g transform="matrix( 0.339874267578125, 0, 0, 0.349884033203125, 0,0) ">
<use xlink:href="#Egg3_0_Layer0_0_MEMBER_14_FILL"/>
</g>

<g transform="matrix( 0.339874267578125, 0, 0, 0.349884033203125, 0,0) ">
<use xlink:href="#Egg3_0_Layer0_0_MEMBER_15_FILL"/>
</g>

<g transform="matrix( 0.339874267578125, 0, 0, 0.349884033203125, 0,0) ">
<use xlink:href="#Egg3_0_Layer0_0_MEMBER_16_FILL"/>
</g>

<g transform="matrix( 0.339874267578125, 0, 0, 0.349884033203125, 0,0) ">
<use xlink:href="#Egg3_0_Layer0_0_MEMBER_17_FILL"/>
</g>

<g transform="matrix( 0.339874267578125, 0, 0, 0.349884033203125, 0,0) ">
<use xlink:href="#Egg3_0_Layer0_0_MEMBER_18_FILL"/>
</g>

<g transform="matrix( 0.339874267578125, 0, 0, 0.349884033203125, 0,0) ">
<use xlink:href="#Egg3_0_Layer0_0_MEMBER_19_FILL"/>
</g>

<g transform="matrix( 0.339874267578125, 0, 0, 0.349884033203125, 0,0) ">
<use xlink:href="#Egg3_0_Layer0_0_MEMBER_20_FILL"/>
</g>

<g transform="matrix( 0.339874267578125, 0, 0, 0.349884033203125, 0,0) ">
<use xlink:href="#Egg3_0_Layer0_0_MEMBER_21_FILL"/>
</g>

<g transform="matrix( 0.339874267578125, 0, 0, 0.349884033203125, 0,0) ">
<use xlink:href="#Egg3_0_Layer0_0_MEMBER_22_FILL"/>
</g>
</g>
</svg>
